<svg version="1" xmlns="http://www.w3.org/2000/svg" width="504" height="361.333" viewBox="0 0 378.000000 271.000000"><path d="M176.2 2.7c-1.3 1.6-2.6 3.3-3 3.8-.4.6-1.8 1.6-3.2 2.3-1.4.6-3.2 1.6-4 2.1-.8.5-2.2 1.2-3 1.6-.8.3-3.3 1.7-5.5 3.1-2.2 1.3-5.7 3.2-7.7 4.1-2.1.9-3.8 2-3.8 2.4 0 .4-1.5 1.3-3.4 1.9-1.9.6-4 1.8-4.6 2.6-1.5 1.7-6.6 1.9-7.7.1-.4-.7-3-2.7-5.8-4.5-2.7-1.7-5.5-3.6-6.2-4.1-2.3-2-12.9-5.1-17.4-5.1-5 0-20 3.2-25.2 5.4-1.8.8-5.7 2.4-8.7 3.6-14.9 6-28.8 13.1-49.8 25.5-4.1 2.4-13.4 10-14.2 11.6-3 5.4.9 14.4 9.1 21 5.2 4.2 13.6 7.9 17.7 7.9 2.5 0 10.5-3.3 12.2-5 .3-.3 2.3-1.8 4.5-3.5 2.2-1.6 5.9-4.9 8.3-7.2 2.4-2.4 4.6-4.3 4.9-4.3.2 0 2.3-1.8 4.6-4 9-8.7 21.3-18.5 27.3-21.8 4.8-2.5 12.9-3 15.9-.8 1.8 1.3 1.8 1.5-1.5 3-4.4 2-24.1 12.7-35.3 19.2-3.2 1.9-6.4 3.4-7.1 3.4-.7 0-1.8 1.1-2.4 2.5-.7 1.5-.8 2.5-.2 2.5.6 0 1 21.6 1 60.2-.1 57.5-.2 60.5-2 64.3-2.4 4.9-2.4 5.5-.5 5.5.8 0 3.1 1 5.2 2.2l6.3 3.6c1.4.7 4.3 2.5 6.5 3.8 2.2 1.3 5.9 3.4 8.3 4.6 2.3 1.2 4.2 2.6 4.2 3 0 .4.9.8 2 .8s2 .4 2 .8 1.9 1.8 4.3 3c2.3 1.2 6 3.3 8.2 4.7 2.2 1.3 4.9 2.9 6 3.4 1.1.6 3.8 2.2 6 3.5 2.2 1.4 7.3 4.4 11.2 6.6 4 2.3 7.5 4.5 7.8 5.1.4.5 1.5.9 2.6.9 1 0 1.9.4 1.9.8s1.9 1.8 4.3 3c2.3 1.2 6 3.3 8.2 4.7 2.2 1.4 4.9 3 6 3.5 1.1.5 3.8 2.1 6 3.5s5.8 3.4 8 4.6c4 2.1 4.2 2.1 7.7.3 7.7-4 19.3-10.8 19.6-11.6.2-.4 1-.8 1.8-.8s2.7-.8 4.2-1.8c3.4-2.2 4.9-3.1 14.2-8.4 4.1-2.3 7.7-4.5 7.8-5 .2-.4 1-.8 1.8-.8s2.7-.8 4.2-1.8c3.4-2.2 4.9-3.1 14.2-8.4 4.1-2.3 7.7-4.5 7.8-5 .2-.4 1-.8 1.8-.8s2.7-.8 4.2-1.8c3.4-2.2 4.9-3.1 14.2-8.4 4.1-2.3 7.7-4.5 7.8-5 .2-.4 1.1-.8 2-.8 1-.1 2.7-.9 3.9-1.9l2.3-1.9v-65.8-67.6c0-.9-1.2-2.1-2.7-2.7-1.6-.6-4.8-2.2-7.3-3.7-7.4-4.4-11.3-6.6-14.5-8.3-4.8-2.4-5.7-3.6-3.7-5.3 2.8-2.4 12-6.7 15.6-7.4 1.9-.3 5.1-.1 7.1.6 4.1 1.3 15.6 12.3 23 21.7 2.6 3.5 5.2 6.3 5.6 6.3.5 0 .9.5.9 1.1 0 1.1 5.4 6.9 6.5 6.9.4 0 1.4.8 2.3 1.9 6.4 7.2 27.4 4.6 42-5.2 7.9-5.3 8.7-12.7 1.9-18.6-1.6-1.4-3.6-3.4-4.5-4.4-.9-.9-2.1-1.7-2.8-1.7-.6 0-1.9-.9-2.9-2s-2.3-2-3-2c-.7 0-2-.9-3-2s-2.3-2-2.9-2c-.6 0-2.2-.9-3.6-2s-3.2-2-4.2-2c-.9 0-1.8-.4-2-.8-.4-1-17.6-9.7-23.3-11.8-16.7-6.2-21.9-7.4-31.1-7.4-9.5 0-10.4.3-20.9 5.7-9.3 4.8-22.7 12.2-24.3 13.5-.9.8-1.7.6-3-.4-.9-.8-4.6-3.1-8.2-5-3.6-1.9-8.1-4.5-10-5.6-1.9-1.2-4.6-2.7-6-3.4-1.4-.6-3.2-1.7-4-2.3-.8-.7-4.6-2.9-8.5-5-14.4-7.8-16.3-9-20.5-13.7l-3.5-3.9-2.3 2.8z"/></svg>