<?xml version="1.0" standalone="no"?>
<!DOCTYPE svg PUBLIC "-//W3C//DTD SVG 20010904//EN"
 "http://www.w3.org/TR/2001/REC-SVG-20010904/DTD/svg10.dtd">
<svg version="1.0" xmlns="http://www.w3.org/2000/svg"
 width="378.000000pt" height="271.000000pt" viewBox="0 0 378.000000 271.000000"
 preserveAspectRatio="xMidYMid meet">
<metadata>
Created by potrace 1.11, written by Peter Selinger 2001-2013
</metadata>
<g transform="translate(0.000000,271.000000) scale(0.100000,-0.100000)"
fill="#000000" stroke="none">
<path d="M1762 2683 c-13 -16 -26 -33 -30 -38 -4 -6 -18 -16 -32 -23 -14 -6
-32 -16 -40 -21 -8 -5 -22 -12 -30 -16 -8 -3 -33 -17 -55 -31 -22 -13 -57 -32
-77 -41 -21 -9 -38 -20 -38 -24 0 -4 -15 -13 -34 -19 -19 -6 -40 -18 -46 -26
-15 -17 -66 -19 -77 -1 -4 7 -30 27 -58 45 -27 17 -55 36 -62 41 -23 20 -129
51 -174 51 -50 0 -200 -32 -252 -54 -18 -8 -57 -24 -87 -36 -149 -60 -288
-131 -498 -255 -41 -24 -134 -100 -142 -116 -30 -54 9 -144 91 -210 52 -42
136 -79 177 -79 25 0 105 33 122 50 3 3 23 18 45 35 22 16 59 49 83 72 24 24
46 43 49 43 2 0 23 18 46 40 90 87 213 185 273 218 48 25 129 30 159 8 18 -13
18 -15 -15 -30 -44 -20 -241 -127 -353 -192 -32 -19 -64 -34 -71 -34 -7 0 -18
-11 -24 -25 -7 -15 -8 -25 -2 -25 6 0 10 -216 10 -602 -1 -575 -2 -605 -20
-643 -24 -49 -24 -55 -5 -55 8 0 31 -10 52 -22 21 -12 49 -28 63 -36 14 -7 43
-25 65 -38 22 -13 59 -34 83 -46 23 -12 42 -26 42 -30 0 -4 9 -8 20 -8 11 0
20 -4 20 -8 0 -4 19 -18 43 -30 23 -12 60 -33 82 -47 22 -13 49 -29 60 -34 11
-6 38 -22 60 -35 22 -14 73 -44 112 -66 40 -23 75 -45 78 -51 4 -5 15 -9 26
-9 10 0 19 -4 19 -8 0 -4 19 -18 43 -30 23 -12 60 -33 82 -47 22 -14 49 -30
60 -35 11 -5 38 -21 60 -35 22 -14 58 -34 80 -46 40 -21 42 -21 77 -3 77 40
193 108 196 116 2 4 10 8 18 8 8 0 27 8 42 18 34 22 49 31 142 84 41 23 77 45
78 50 2 4 10 8 18 8 8 0 27 8 42 18 34 22 49 31 142 84 41 23 77 45 78 50 2 4
10 8 18 8 8 0 27 8 42 18 34 22 49 31 142 84 41 23 77 45 78 50 2 4 11 8 20 8
10 1 27 9 39 19 l23 19 0 658 c0 363 0 666 0 676 0 9 -12 21 -27 27 -16 6 -48
22 -73 37 -74 44 -113 66 -145 83 -48 24 -57 36 -37 53 28 24 120 67 156 74
19 3 51 1 71 -6 41 -13 156 -123 230 -217 26 -35 52 -63 56 -63 5 0 9 -5 9
-11 0 -11 54 -69 65 -69 4 0 14 -8 23 -19 64 -72 274 -46 420 52 79 53 87 127
19 186 -16 14 -36 34 -45 44 -9 9 -21 17 -28 17 -6 0 -19 9 -29 20 -10 11 -23
20 -30 20 -7 0 -20 9 -30 20 -10 11 -23 20 -29 20 -6 0 -22 9 -36 20 -14 11
-32 20 -42 20 -9 0 -18 4 -20 8 -4 10 -176 97 -233 118 -167 62 -219 74 -311
74 -95 0 -104 -3 -209 -57 -93 -48 -227 -122 -243 -135 -9 -8 -17 -6 -30 4 -9
8 -46 31 -82 50 -36 19 -81 45 -100 56 -19 12 -46 27 -60 34 -14 6 -32 17 -40
23 -8 7 -46 29 -85 50 -144 78 -163 90 -205 137 l-35 39 -23 -28z"/>
</g>
</svg>
